<?xml version="1.0" encoding="utf-8"?>
<!-- Svg Vector Icons : http://www.onlinewebfonts.com/icon -->
<!DOCTYPE svg PUBLIC "-//W3C//DTD SVG 1.1//EN" "http://www.w3.org/Graphics/SVG/1.1/DTD/svg11.dtd">
<svg version="1.1" xmlns="http://www.w3.org/2000/svg" xmlns:xlink="http://www.w3.org/1999/xlink" x="0px" y="0px" viewBox="0 0 1000 1000" enable-background="new 0 0 1000 1000" xml:space="preserve">
<metadata> Svg Vector Icons : http://www.onlinewebfonts.com/icon </metadata>
<g><g><polygon points="366.8,368 418.3,314.4 268.6,159.7 268.8,148.1 280.3,148.4 429.6,302.7 479.3,250.9 337.1,103.4 217.4,103.6 217.7,214 "/><path d="M686.2,580c42.7,2,75-2.8,95-16.1L635.9,413.2l-49.4,51.5l84.9,87.7l-11.7,11.3l-84.5-87.3l-51.4,53.6l141.4,146C678.9,656,685.5,623.4,686.2,580z"/><path d="M801.6,462C856,568,814.5,606.6,707,601.5c-1.6,111.5-43.1,152-142.6,90c38.6,114.4,151.6,101.2,193.8-37.1C864.9,631.7,936.7,523.3,801.6,462z"/><path d="M934,752.1l-24.9-25.7c-49.3-50.9-108.5-73.6-132.2-50.6c-23.8,23-3.1,82.9,46.2,133.8l24.9,25.7c49.3,50.9,108.5,73.5,132.2,50.6C1003.9,863,983.2,803,934,752.1z"/><path d="M218.8,565.7c20,13.2,52.3,18.1,95,16.1c0.6,43.4,7.3,76.1,21.1,96.1l447.4-462.1l0.2-112.6l-116.9,0.1L218.8,565.7L218.8,565.7z M719.7,150.2l11.5-0.3l0.2,11.6L340.3,565.6l-11.7-11.3L719.7,150.2z"/><path d="M293,603.3c-107.6,5.1-149-33.4-94.6-139.5c-135.1,61.3-63.3,169.7,43.4,192.4c42.2,138.3,155.1,151.5,193.8,37.1C336.1,755.3,294.6,714.8,293,603.3z"/><path d="M90.9,728.3L66,753.9C16.8,804.9-3.9,864.8,19.9,887.8c23.8,23,83,0.4,132.2-50.6l24.9-25.7c49.3-50.9,69.9-110.8,46.2-133.8C199.4,654.7,140.2,677.3,90.9,728.3z"/></g><g></g><g></g><g></g><g></g><g></g><g></g><g></g><g></g><g></g><g></g><g></g><g></g><g></g><g></g><g></g></g>
</svg>